HIERARCHY
ROOT hip
{
  OFFSET 0 90.174 2.4664
  CHANNELS 6 Xposition Yposition Zposition Zrotation Xrotation Yrotation
  JOINT abdomen
  {
    OFFSET 0 -1.186 -1.5018
    CHANNELS 6 Xposition Yposition Zposition Zrotation Xrotation Yrotation
    JOINT abdomen2
    {
      OFFSET 0 9.964 0.2134
      CHANNELS 6 Xposition Yposition Zposition Zrotation Xrotation Yrotation
      JOINT chest
      {
        OFFSET 0 13.134 -3.2573
        CHANNELS 6 Xposition Yposition Zposition Zrotation Xrotation Yrotation
        JOINT neck
        {
          OFFSET 0 20.686 -1.6905
          CHANNELS 6 Xposition Yposition Zposition Zrotation Xrotation Yrotation
          JOINT head
          {
            OFFSET 0 7.238 -0.1237
            CHANNELS 6 Xposition Yposition Zposition Zrotation Xrotation Yrotation
            End Site
            {
              OFFSET 0 0 0
            }
          }
        }
        JOINT lCollar
        {
          OFFSET 1.7069 20.075 5.0056
          CHANNELS 6 Xposition Yposition Zposition Zrotation Xrotation Yrotation
          JOINT lShldr
          {
            OFFSET 13.6458 -0.047 -4.849
            CHANNELS 6 Xposition Yposition Zposition Zrotation Xrotation Yrotation
            JOINT lForeArm
            {
              OFFSET 28.3255 -0.9759 2.2888
              CHANNELS 6 Xposition Yposition Zposition Zrotation Xrotation Yrotation
              JOINT lHand
              {
                OFFSET 22.1583 -0.53 10.8316
                CHANNELS 6 Xposition Yposition Zposition Zrotation Xrotation Yrotation
                JOINT lThumb1
                {
                  OFFSET 0.786 0.112 2.5817
                  CHANNELS 6 Xposition Yposition Zposition Zrotation Xrotation Yrotation
                  JOINT lThumb2
                  {
                    OFFSET 0.3601 -0.878 4.2331
                    CHANNELS 6 Xposition Yposition Zposition Zrotation Xrotation Yrotation
                    JOINT lThumb2_End
                    {
                      OFFSET 1.8127 -1.216 2.2227
                      CHANNELS 6 Xposition Yposition Zposition Zrotation Xrotation Yrotation
                      End Site
                      {
                        OFFSET 0.0181 -0.0122 0.0222
                      }
                    }
                  }
                }
                JOINT lCarpal1
                {
                  OFFSET 0.9571 1.114 1.7695
                  CHANNELS 6 Xposition Yposition Zposition Zrotation Xrotation Yrotation
                  JOINT lIndex1
                  {
                    OFFSET 4.1246 0.487 4.1451
                    CHANNELS 6 Xposition Yposition Zposition Zrotation Xrotation Yrotation
                    JOINT lIndex2
                    {
                      OFFSET 3.4052 -1.454 2.7682
                      CHANNELS 6 Xposition Yposition Zposition Zrotation Xrotation Yrotation
                      JOINT lIndex2_End
                      {
                        OFFSET 1.4531 -1.795 1.2713
                        CHANNELS 6 Xposition Yposition Zposition Zrotation Xrotation Yrotation
                        End Site
                        {
                          OFFSET 0.0145 -0.0179 0.0127
                        }
                      }
                    }
                  }
                  JOINT lMid1
                  {
                    OFFSET 5.6954 0.21 2.1184
                    CHANNELS 6 Xposition Yposition Zposition Zrotation Xrotation Yrotation
                    JOINT lMid2
                    {
                      OFFSET 3.9766 -1.54 2.3863
                      CHANNELS 6 Xposition Yposition Zposition Zrotation Xrotation Yrotation
                      JOINT lMid2_End
                      {
                        OFFSET 1.4042 -1.926 1.125
                        CHANNELS 6 Xposition Yposition Zposition Zrotation Xrotation Yrotation
                        End Site
                        {
                          OFFSET 0.014 -0.0193 0.0113
                        }
                      }
                    }
                  }
                }
                JOINT lCarpal2
                {
                  OFFSET 2.0956 0.66 -0.3894
                  CHANNELS 6 Xposition Yposition Zposition Zrotation Xrotation Yrotation
                  JOINT lRing1
                  {
                    OFFSET 5.0395 -0.09 2.4971
                    CHANNELS 6 Xposition Yposition Zposition Zrotation Xrotation Yrotation
                    JOINT lRing2
                    {
                      OFFSET 3.7921 -1.552 1.4806
                      CHANNELS 6 Xposition Yposition Zposition Zrotation Xrotation Yrotation
                      JOINT lRing2_End
                      {
                        OFFSET 1.4655 -1.808 0.9609
                        CHANNELS 6 Xposition Yposition Zposition Zrotation Xrotation Yrotation
                        End Site
                        {
                          OFFSET 0.0147 -0.0181 0.0096
                        }
                      }
                    }
                  }
                  JOINT lPinky1
                  {
                    OFFSET 4.9141 -1.269 0.3591
                    CHANNELS 6 Xposition Yposition Zposition Zrotation Xrotation Yrotation
                    JOINT lPinky2
                    {
                      OFFSET 3.1477 -1.685 0.8462
                      CHANNELS 6 Xposition Yposition Zposition Zrotation Xrotation Yrotation
                      JOINT lPinky2_End
                      {
                        OFFSET 0.8055 -1.585 0.7955
                        CHANNELS 6 Xposition Yposition Zposition Zrotation Xrotation Yrotation
                        End Site
                        {
                          OFFSET 0.0081 -0.0158 0.008
                        }
                      }
                    }
                  }
                }
              }
            }
          }
        }
        JOINT rCollar
        {
          OFFSET -1.7069 20.075 5.0056
          CHANNELS 6 Xposition Yposition Zposition Zrotation Xrotation Yrotation
          JOINT rShldr
          {
            OFFSET -13.6458 -0.047 -4.849
            CHANNELS 6 Xposition Yposition Zposition Zrotation Xrotation Yrotation
            JOINT rForeArm
            {
              OFFSET -28.3255 -0.9759 2.2888
              CHANNELS 6 Xposition Yposition Zposition Zrotation Xrotation Yrotation
              JOINT rHand
              {
                OFFSET -22.1583 -0.53 10.8316
                CHANNELS 6 Xposition Yposition Zposition Zrotation Xrotation Yrotation
                JOINT rThumb1
                {
                  OFFSET -0.786 0.112 2.5817
                  CHANNELS 6 Xposition Yposition Zposition Zrotation Xrotation Yrotation
                  JOINT rThumb2
                  {
                    OFFSET -0.3601 -0.878 4.2331
                    CHANNELS 6 Xposition Yposition Zposition Zrotation Xrotation Yrotation
                    JOINT rThumb2_End
                    {
                      OFFSET -1.8127 -1.216 2.2227
                      CHANNELS 6 Xposition Yposition Zposition Zrotation Xrotation Yrotation
                      End Site
                      {
                        OFFSET -0.0181 -0.0122 0.0222
                      }
                    }
                  }
                }
                JOINT rCarpal1
                {
                  OFFSET -0.9571 1.114 1.7695
                  CHANNELS 6 Xposition Yposition Zposition Zrotation Xrotation Yrotation
                  JOINT rIndex1
                  {
                    OFFSET -4.1246 0.487 4.1451
                    CHANNELS 6 Xposition Yposition Zposition Zrotation Xrotation Yrotation
                    JOINT rIndex2
                    {
                      OFFSET -3.4052 -1.454 2.7682
                      CHANNELS 6 Xposition Yposition Zposition Zrotation Xrotation Yrotation
                      JOINT rIndex2_End
                      {
                        OFFSET -1.4531 -1.795 1.2713
                        CHANNELS 6 Xposition Yposition Zposition Zrotation Xrotation Yrotation
                        End Site
                        {
                          OFFSET -0.0145 -0.018 0.0127
                        }
                      }
                    }
                  }
                  JOINT rMid1
                  {
                    OFFSET -5.6954 0.21 2.1184
                    CHANNELS 6 Xposition Yposition Zposition Zrotation Xrotation Yrotation
                    JOINT rMid2
                    {
                      OFFSET -3.9766 -1.54 2.3863
                      CHANNELS 6 Xposition Yposition Zposition Zrotation Xrotation Yrotation
                      JOINT rMid2_End
                      {
                        OFFSET -1.4042 -1.926 1.125
                        CHANNELS 6 Xposition Yposition Zposition Zrotation Xrotation Yrotation
                        End Site
                        {
                          OFFSET -0.014 -0.0193 0.0113
                        }
                      }
                    }
                  }
                }
                JOINT rCarpal2
                {
                  OFFSET -2.0956 0.66 -0.3894
                  CHANNELS 6 Xposition Yposition Zposition Zrotation Xrotation Yrotation
                  JOINT rRing1
                  {
                    OFFSET -5.0395 -0.09 2.4971
                    CHANNELS 6 Xposition Yposition Zposition Zrotation Xrotation Yrotation
                    JOINT rRing2
                    {
                      OFFSET -3.7921 -1.552 1.4806
                      CHANNELS 6 Xposition Yposition Zposition Zrotation Xrotation Yrotation
                      JOINT rRing2_End
                      {
                        OFFSET -1.4655 -1.808 0.9609
                        CHANNELS 6 Xposition Yposition Zposition Zrotation Xrotation Yrotation
                        End Site
                        {
                          OFFSET -0.0147 -0.0181 0.0096
                        }
                      }
                    }
                  }
                  JOINT rPinky1
                  {
                    OFFSET -4.9141 -1.269 0.3592
                    CHANNELS 6 Xposition Yposition Zposition Zrotation Xrotation Yrotation
                    JOINT rPinky2
                    {
                      OFFSET -3.1477 -1.685 0.8462
                      CHANNELS 6 Xposition Yposition Zposition Zrotation Xrotation Yrotation
                      JOINT rPinky2_End
                      {
                        OFFSET -0.8055 -1.585 0.7955
                        CHANNELS 6 Xposition Yposition Zposition Zrotation Xrotation Yrotation
                        End Site
                        {
                          OFFSET -0.0081 -0.0158 0.008
                        }
                      }
                    }
                  }
                }
              }
            }
          }
        }
      }
    }
  }
  JOINT lThigh
  {
    OFFSET 8.367 -8.2066 0.5982
    CHANNELS 6 Xposition Yposition Zposition Zrotation Xrotation Yrotation
    JOINT lShin
    {
      OFFSET 2.1923 -43.463 -0.4932
      CHANNELS 6 Xposition Yposition Zposition Zrotation Xrotation Yrotation
      JOINT lFoot
      {
        OFFSET 0.7333 -45.8593 -2.6451
        CHANNELS 6 Xposition Yposition Zposition Zrotation Xrotation Yrotation
        End Site
        {
          OFFSET 2.6618 -4.2699 12.3931
        }
      }
    }
  }
  JOINT rThigh
  {
    OFFSET -8.367 -8.2066 0.5982
    CHANNELS 6 Xposition Yposition Zposition Zrotation Xrotation Yrotation
    JOINT rShin
    {
      OFFSET -2.1923 -43.463 -0.4931
      CHANNELS 6 Xposition Yposition Zposition Zrotation Xrotation Yrotation
      JOINT rFoot
      {
        OFFSET -0.7333 -45.8593 -2.6451
        CHANNELS 6 Xposition Yposition Zposition Zrotation Xrotation Yrotation
        End Site
        {
          OFFSET -2.6618 -4.2699 12.3931
        }
      }
    }
  }
}
MOTION
Frames:	4
Frame Time:	0.0333333
41.7408 1.25971 -5.31318 -0 -87.1758 -0 0 -1.186 -1.5018 -0.0483651 5.51289 -0.117469 0 9.964 0.2134 -0.0859142 11.0259 -0.23186 -7.10543e-015 13.134 -3.2573 -0.0859143 11.0259 -0.23186 0 20.686 -1.6905 9.6793e-007 -15.7589 6.15815e-007 0 7.238 -0.1237 7.47296e-010 -14.9828 6.37557e-009 1.7069 20.075 5.0056 11.5334 -0.865489 7.24361 13.6458 -0.047 -4.849 -58.1451 5.14737 28.229 28.3255 -0.9759 2.2888 29.6243 15.035 -31.8802 22.1583 -0.53 10.8316 -10.9175 21.0994 -28.0301 0.786 0.112 2.5817 1.19271e-015 -4.96962e-015 -0 0.3601 -0.878 4.2331 1.19271e-015 -2.18663e-015 6.36111e-015 1.8127 -1.216 2.2227 7.95139e-016 -1.59028e-015 6.36111e-015 0.9571 1.114 1.7695 1.19271e-015 -5.56597e-015 -3.18055e-015 4.1246 0.487 4.1451 -1.59028e-015 -7.35503e-015 9.54166e-015 3.4052 -1.454 2.7682 -1.19271e-015 -7.95139e-016 6.36111e-015 1.4531 -1.795 1.2713 -1.19271e-015 -5.96354e-016 6.36111e-015 5.6954 0.21 2.1184 -1.59028e-015 -7.35503e-015 9.54166e-015 3.9766 -1.54 2.3863 -1.19271e-015 -7.95139e-016 6.36111e-015 1.4042 -1.926 1.125 -1.19271e-015 -5.96354e-016 6.36111e-015 2.0956 0.66 -0.3894 1.19271e-015 -5.56597e-015 -3.18055e-015 5.0395 -0.09 2.4971 -1.59028e-015 -7.35503e-015 9.54166e-015 3.7921 -1.552 1.4806 -1.19271e-015 -7.95139e-016 6.36111e-015 1.4655 -1.808 0.9609 -1.19271e-015 -5.96354e-016 6.36111e-015 4.9141 -1.269 0.3591 -1.59028e-015 -7.35503e-015 9.54166e-015 3.1477 -1.685 0.8462 -1.19271e-015 -7.95139e-016 6.36111e-015 0.8055 -1.585 0.7955 -1.19271e-015 -5.96354e-016 6.36111e-015 -1.7069 20.075 5.0056 -32.4158 25.3061 -11.3989 -13.6458 -0.047 -4.849 74.4876 1.56682 -36.2767 -28.3255 -0.9759 2.2888 -34.0132 2.71839 59.4096 -22.1583 -0.53 10.8316 10.6136 18.05 32.5908 -0.786 0.112 2.5817 2.38542e-015 1.98785e-015 -0 -0.3601 -0.878 4.2331 2.38542e-015 -4.77083e-015 -6.36111e-015 -1.8127 -1.216 2.2227 2.38542e-015 -2.78299e-015 -0 -0.9571 1.114 1.7695 7.95139e-016 2.78299e-015 -0 -4.1246 0.487 4.1451 2.38542e-015 -3.57812e-015 -6.36111e-015 -3.4052 -1.454 2.7682 1.59028e-015 1.19271e-015 -0 -1.4531 -1.795 1.2713 2.38542e-015 -1.59028e-015 -0 -5.6954 0.21 2.1184 2.38542e-015 -3.57812e-015 -6.36111e-015 -3.9766 -1.54 2.3863 1.59028e-015 1.19271e-015 -0 -1.4042 -1.926 1.125 2.38542e-015 -1.59028e-015 -0 -2.0956 0.66 -0.3894 7.95139e-016 2.78299e-015 -0 -5.0395 -0.09 2.4971 2.38542e-015 -3.57812e-015 -6.36111e-015 -3.7921 -1.552 1.4806 1.59028e-015 1.19271e-015 -0 -1.4655 -1.808 0.9609 2.38542e-015 -1.59028e-015 -0 -4.9141 -1.269 0.3592 2.38542e-015 -3.57812e-015 -6.36111e-015 -3.1477 -1.685 0.8462 1.59028e-015 1.19271e-015 -0 -0.8055 -1.585 0.7955 2.38542e-015 -1.59028e-015 -0 8.367 -8.2066 0.5982 25.2337 -11.4843 -26.1657 2.1923 -43.463 -0.4932 -5.37965 23.6694 0.775071 0.7333 -45.8593 -2.6451 14.3056 5.57942 27.3738 -8.367 -8.2066 0.5982 -59.8109 -46.3746 -33.582 -2.1923 -43.463 -0.4931 169.547 75.2261 -175.927 -0.7333 -45.8593 -2.6451 -54.047 34.6312 66.1886 
41.7372 1.3023 -5.35153 -0 -86.6079 -0 0 -1.186 -1.5018 -0.0482203 5.48066 -0.117556 0 9.964 0.2134 -0.0856757 10.9614 -0.232057 -7.10543e-015 13.134 -3.2573 -0.0856756 10.9614 -0.232057 0 20.686 -1.6905 1.18551e-006 -15.6036 2.08958e-007 0 7.238 -0.1237 -3.99653e-008 -14.8555 -7.98876e-008 1.7069 20.075 5.0056 11.2742 -1.09635 7.13766 13.6458 -0.047 -4.849 -57.9554 5.19273 28.1817 28.3255 -0.9759 2.2888 29.5 15.2253 -31.5081 22.1583 -0.53 10.8316 -10.5642 20.7745 -28.3753 0.786 0.112 2.5817 2.25384e-006 -6.46188e-007 -5.69196e-007 0.3601 -0.878 4.2331 3.70385e-006 1.57636e-007 -8.0351e-007 1.8127 -1.216 2.2227 1.57636e-007 -3.70385e-006 -4.35448e-007 0.9571 1.114 1.7695 3.53113e-031 3.18055e-015 -6.36111e-015 4.1246 0.487 4.1451 2.25384e-006 -6.46188e-007 -5.69196e-007 3.4052 -1.454 2.7682 3.70385e-006 1.57636e-007 -8.0351e-007 1.4531 -1.795 1.2713 1.57636e-007 -3.70385e-006 -4.35448e-007 5.6954 0.21 2.1184 2.25384e-006 -6.46188e-007 -5.69196e-007 3.9766 -1.54 2.3863 3.70385e-006 1.57636e-007 -8.0351e-007 1.4042 -1.926 1.125 1.57636e-007 -3.70385e-006 -4.35448e-007 2.0956 0.66 -0.3894 3.53113e-031 3.18055e-015 -6.36111e-015 5.0395 -0.09 2.4971 2.25384e-006 -6.46188e-007 -5.69196e-007 3.7921 -1.552 1.4806 3.70385e-006 1.57636e-007 -8.0351e-007 1.4655 -1.808 0.9609 1.57636e-007 -3.70385e-006 -4.35448e-007 4.9141 -1.269 0.3591 2.25384e-006 -6.46188e-007 -5.69196e-007 3.1477 -1.685 0.8462 3.70385e-006 1.57636e-007 -8.0351e-007 0.8055 -1.585 0.7955 1.57636e-007 -3.70385e-006 -4.35448e-007 -1.7069 20.075 5.0056 -31.8419 25.1642 -11.5807 -13.6458 -0.047 -4.849 74.2369 1.66456 -36.1351 -28.3255 -0.9759 2.2888 -34.0252 2.77885 59.1085 -22.1583 -0.53 10.8316 10.2685 17.7352 32.7996 -0.786 0.112 2.5817 2.24245e-006 6.81432e-007 -5.77578e-007 -0.3601 -0.878 4.2331 3.7044e-006 -9.90778e-008 -8.31389e-007 -1.8127 -1.216 2.2227 2.24245e-006 6.81432e-007 -5.77578e-007 -0.9571 1.114 1.7695 -4.8553e-031 4.37326e-015 6.36111e-015 -4.1246 0.487 4.1451 2.24245e-006 6.81432e-007 -5.77578e-007 -3.4052 -1.454 2.7682 3.7044e-006 -9.90778e-008 -8.31389e-007 -1.4531 -1.795 1.2713 2.24245e-006 6.81432e-007 -5.77578e-007 -5.6954 0.21 2.1184 2.24245e-006 6.81432e-007 -5.77578e-007 -3.9766 -1.54 2.3863 3.7044e-006 -9.90778e-008 -8.31389e-007 -1.4042 -1.926 1.125 2.24245e-006 6.81432e-007 -5.77578e-007 -2.0956 0.66 -0.3894 -4.8553e-031 4.37326e-015 6.36111e-015 -5.0395 -0.09 2.4971 2.24245e-006 6.81432e-007 -5.77578e-007 -3.7921 -1.552 1.4806 3.7044e-006 -9.90778e-008 -8.31389e-007 -1.4655 -1.808 0.9609 2.24245e-006 6.81432e-007 -5.77578e-007 -4.9141 -1.269 0.3592 2.24245e-006 6.81432e-007 -5.77578e-007 -3.1477 -1.685 0.8462 3.7044e-006 -9.90778e-008 -8.31389e-007 -0.8055 -1.585 0.7955 2.24245e-006 6.81432e-007 -5.77578e-007 8.367 -8.2066 0.5982 25.2644 -11.8931 -26.2271 2.1923 -43.463 -0.4932 -5.30842 23.47 0.75499 0.7333 -45.8593 -2.6451 14.2014 5.75843 27.6388 -8.367 -8.2066 0.5982 -60.3357 -46.6765 -34.3204 -2.1923 -43.463 -0.4931 169.549 75.2244 -175.931 -0.7333 -45.8593 -2.6451 -54.0483 34.6306 66.1874 
41.7343 1.33697 -5.38255 -0 -86.1428 -0 0 -1.186 -1.5018 -0.0481009 5.4542 -0.117625 0 9.964 0.2134 -0.0854791 10.9085 -0.232216 0 13.134 -3.2573 -0.085479 10.9085 -0.232216 -7.10543e-015 20.686 -1.6905 -2.88303e-007 -15.448 7.28612e-007 0 7.238 -0.1237 1.01089e-007 -14.7282 3.45265e-008 1.7069 20.075 5.0056 11.0618 -1.2848 7.04989 13.6458 -0.047 -4.849 -57.8001 5.22968 28.1428 28.3255 -0.9759 2.2888 29.3973 15.3804 -31.2028 22.1583 -0.53 10.8316 -10.2772 20.5064 -28.6554 0.786 0.112 2.5817 -1.27239e-006 2.11972e-006 -2.56495e-006 0.3601 -0.878 4.2331 -3.70386e-006 -1.58094e-007 8.03278e-007 1.8127 -1.216 2.2227 -2.25394e-006 6.45916e-007 5.69087e-007 0.9571 1.114 1.7695 -3.97569e-016 -2.78299e-015 3.18055e-015 4.1246 0.487 4.1451 -1.27239e-006 2.11972e-006 -2.56495e-006 3.4052 -1.454 2.7682 -3.70386e-006 -1.58094e-007 8.03278e-007 1.4531 -1.795 1.2713 -2.25394e-006 6.45916e-007 5.69087e-007 5.6954 0.21 2.1184 -1.27239e-006 2.11972e-006 -2.56495e-006 3.9766 -1.54 2.3863 -3.70386e-006 -1.58094e-007 8.03278e-007 1.4042 -1.926 1.125 -2.25394e-006 6.45916e-007 5.69087e-007 2.0956 0.66 -0.3894 -3.97569e-016 -2.78299e-015 3.18055e-015 5.0395 -0.09 2.4971 -1.27239e-006 2.11972e-006 -2.56495e-006 3.7921 -1.552 1.4806 -3.70386e-006 -1.58094e-007 8.03278e-007 1.4655 -1.808 0.9609 -2.25394e-006 6.45916e-007 5.69087e-007 4.9141 -1.269 0.3591 -1.27239e-006 2.11972e-006 -2.56495e-006 3.1477 -1.685 0.8462 -3.70386e-006 -1.58094e-007 8.03278e-007 0.8055 -1.585 0.7955 -2.25394e-006 6.45916e-007 5.69087e-007 -1.7069 20.075 5.0056 -31.3727 25.0465 -11.7279 -13.6458 -0.047 -4.849 74.0316 1.74389 -36.0188 -28.3255 -0.9759 2.2888 -34.0347 2.82936 58.8624 -22.1583 -0.53 10.8316 9.98742 17.4762 32.9684 -0.786 0.112 2.5817 2.38542e-015 -8.74653e-015 9.54166e-015 -0.3601 -0.878 4.2331 -3.97569e-015 -3.97569e-016 -0 -1.8127 -1.216 2.2227 -7.95139e-016 -9.14409e-015 6.36111e-015 -0.9571 1.114 1.7695 3.97569e-015 -4.37326e-015 9.54166e-015 -4.1246 0.487 4.1451 -4.77083e-015 7.95139e-016 -0 -3.4052 -1.454 2.7682 -3.18055e-015 1.59028e-015 3.18055e-015 -1.4531 -1.795 1.2713 7.95139e-016 -1.98785e-015 -0 -5.6954 0.21 2.1184 -4.77083e-015 7.95139e-016 -0 -3.9766 -1.54 2.3863 -3.18055e-015 1.59028e-015 3.18055e-015 -1.4042 -1.926 1.125 7.95139e-016 -1.98785e-015 -0 -2.0956 0.66 -0.3894 3.97569e-015 -4.37326e-015 9.54166e-015 -5.0395 -0.09 2.4971 -4.77083e-015 7.95139e-016 -0 -3.7921 -1.552 1.4806 -3.18055e-015 1.59028e-015 3.18055e-015 -1.4655 -1.808 0.9609 7.95139e-016 -1.98785e-015 -0 -4.9141 -1.269 0.3592 -4.77083e-015 7.95139e-016 -0 -3.1477 -1.685 0.8462 -3.18055e-015 1.59028e-015 3.18055e-015 -0.8055 -1.585 0.7955 7.95139e-016 -1.98785e-015 -0 8.367 -8.2066 0.5982 25.2894 -12.2279 -26.2768 2.1923 -43.463 -0.4932 -5.25034 23.3069 0.738868 0.7333 -45.8593 -2.6451 14.1156 5.90464 27.856 -8.367 -8.2066 0.5982 -60.7711 -46.9208 -34.9309 -2.1923 -43.463 -0.4931 169.55 75.2232 -175.934 -0.7333 -45.8593 -2.6451 -54.0493 34.6302 66.1865 
41.7316 1.37148 -5.41326 -0 -85.6773 -0 0 -1.186 -1.5018 -0.0479812 5.42771 -0.117694 7.10543e-015 9.964 0.2134 -0.0852821 10.8555 -0.232373 0 13.134 -3.2573 -0.0852821 10.8555 -0.232374 -7.10543e-015 20.686 -1.6905 3.37064e-006 -15.293 2.85025e-007 0 7.238 -0.1237 -1.08659e-007 -14.6008 -8.52891e-008 1.7069 20.075 5.0056 10.849 -1.47294 6.96138 13.6458 -0.047 -4.849 -57.6448 5.2665 28.1039 28.3255 -0.9759 2.2888 29.2936 15.5349 -30.8969 22.1583 -0.53 10.8316 -9.99199 20.2369 -28.9338 0.786 0.112 2.5817 -1.98785e-015 1.49089e-014 -3.18055e-015 0.3601 -0.878 4.2331 3.97569e-016 1.2921e-014 -9.54166e-015 1.8127 -1.216 2.2227 0 7.95139e-016 -0 0.9571 1.114 1.7695 -1.98785e-015 1.11319e-014 -3.18055e-015 4.1246 0.487 4.1451 3.18055e-015 -1.59028e-015 -3.18055e-015 3.4052 -1.454 2.7682 7.95139e-016 4.96962e-015 3.18055e-015 1.4531 -1.795 1.2713 2.78299e-015 5.36719e-015 6.36111e-015 5.6954 0.21 2.1184 3.18055e-015 -1.59028e-015 -3.18055e-015 3.9766 -1.54 2.3863 7.95139e-016 4.96962e-015 3.18055e-015 1.4042 -1.926 1.125 2.78299e-015 5.36719e-015 6.36111e-015 2.0956 0.66 -0.3894 -1.98785e-015 1.11319e-014 -3.18055e-015 5.0395 -0.09 2.4971 3.18055e-015 -1.59028e-015 -3.18055e-015 3.7921 -1.552 1.4806 7.95139e-016 4.96962e-015 3.18055e-015 1.4655 -1.808 0.9609 2.78299e-015 5.36719e-015 6.36111e-015 4.9141 -1.269 0.3591 3.18055e-015 -1.59028e-015 -3.18055e-015 3.1477 -1.685 0.8462 7.95139e-016 4.96962e-015 3.18055e-015 0.8055 -1.585 0.7955 2.78299e-015 5.36719e-015 6.36111e-015 -1.7069 20.075 5.0056 -30.9041 24.9276 -11.874 -13.6458 -0.047 -4.849 73.826 1.82282 -35.9022 -28.3255 -0.9759 2.2888 -34.044 2.88004 58.6164 -22.1583 -0.53 10.8316 9.70743 17.2163 33.1357 -0.786 0.112 2.5817 -7.8092e-007 -1.46176e-006 3.23917e-007 -0.3601 -0.878 4.2331 2.20695e-031 -7.95139e-016 1.59028e-014 -1.8127 -1.216 2.2227 1.59028e-015 -1.19271e-015 9.54166e-015 -0.9571 1.114 1.7695 -7.95139e-016 4.37326e-015 -0 -4.1246 0.487 4.1451 -7.8092e-007 -1.46176e-006 3.23917e-007 -3.4052 -1.454 2.7682 3.97569e-015 -1.19271e-015 -0 -1.4531 -1.795 1.2713 3.97569e-015 -4.37326e-015 6.36111e-015 -5.6954 0.21 2.1184 -7.8092e-007 -1.46176e-006 3.23917e-007 -3.9766 -1.54 2.3863 3.97569e-015 -1.19271e-015 -0 -1.4042 -1.926 1.125 3.97569e-015 -4.37326e-015 6.36111e-015 -2.0956 0.66 -0.3894 -7.95139e-016 4.37326e-015 -0 -5.0395 -0.09 2.4971 -7.8092e-007 -1.46176e-006 3.23917e-007 -3.7921 -1.552 1.4806 3.97569e-015 -1.19271e-015 -0 -1.4655 -1.808 0.9609 3.97569e-015 -4.37326e-015 6.36111e-015 -4.9141 -1.269 0.3592 -7.8092e-007 -1.46176e-006 3.23917e-007 -3.1477 -1.685 0.8462 3.97569e-015 -1.19271e-015 -0 -0.8055 -1.585 0.7955 3.97569e-015 -4.37326e-015 6.36111e-015 8.367 -8.2066 0.5982 25.3143 -12.5629 -26.3263 2.1923 -43.463 -0.4932 -5.19244 23.144 0.722982 0.7333 -45.8593 -2.6451 14.0293 6.05044 28.0735 -8.367 -8.2066 0.5982 -61.2127 -47.1622 -35.5473 -2.1923 -43.463 -0.4931 169.552 75.222 -175.937 -0.7333 -45.8593 -2.6451 -54.0503 34.6299 66.1858 
